<mxfile host="app.diagrams.net" modified="2023-06-15T11:04:15.556Z" agent="Mozilla/5.0 (Windows NT 10.0; Win64; x64) AppleWebKit/537.36 (KHTML, like Gecko) Chrome/113.0.21244.127 Safari/537.36 Avast/113.0.21244.127" etag="A0sJbJDAeaG-rgd23qTn" version="21.4.0" type="github">
  <diagram name="Page-1" id="2YBvvXClWsGukQMizWep">
    <mxGraphModel dx="880" dy="490" grid="0" gridSize="10" guides="1" tooltips="1" connect="1" arrows="0" fold="1" page="1" pageScale="1" pageWidth="850" pageHeight="1100" background="none" math="0" shadow="0">
      <root>
        <mxCell id="0" />
        <mxCell id="1" parent="0" />
        <mxCell id="9qP5agyVCZDFQKbvkqB9-2" value="User" style="shape=umlActor;verticalLabelPosition=bottom;verticalAlign=top;html=1;outlineConnect=0;" vertex="1" parent="1">
          <mxGeometry x="263" y="151" width="24" height="49" as="geometry" />
        </mxCell>
        <mxCell id="9qP5agyVCZDFQKbvkqB9-6" value="" style="html=1;points=[];perimeter=orthogonalPerimeter;outlineConnect=0;targetShapes=umlLifeline;portConstraint=eastwest;newEdgeStyle={&quot;edgeStyle&quot;:&quot;elbowEdgeStyle&quot;,&quot;elbow&quot;:&quot;vertical&quot;,&quot;curved&quot;:0,&quot;rounded&quot;:0};" vertex="1" parent="1">
          <mxGeometry x="270" y="234" width="10" height="337" as="geometry" />
        </mxCell>
        <mxCell id="9qP5agyVCZDFQKbvkqB9-7" value="" style="html=1;points=[];perimeter=orthogonalPerimeter;outlineConnect=0;targetShapes=umlLifeline;portConstraint=eastwest;newEdgeStyle={&quot;edgeStyle&quot;:&quot;elbowEdgeStyle&quot;,&quot;elbow&quot;:&quot;vertical&quot;,&quot;curved&quot;:0,&quot;rounded&quot;:0};" vertex="1" parent="1">
          <mxGeometry x="462" y="240" width="10" height="70" as="geometry" />
        </mxCell>
        <mxCell id="9qP5agyVCZDFQKbvkqB9-8" value="Main Page" style="html=1;verticalAlign=bottom;startArrow=oval;endArrow=block;startSize=8;edgeStyle=elbowEdgeStyle;elbow=vertical;curved=0;rounded=0;" edge="1" target="9qP5agyVCZDFQKbvkqB9-7" parent="1">
          <mxGeometry relative="1" as="geometry">
            <mxPoint x="289" y="240" as="sourcePoint" />
          </mxGeometry>
        </mxCell>
        <mxCell id="9qP5agyVCZDFQKbvkqB9-11" value="" style="html=1;points=[];perimeter=orthogonalPerimeter;outlineConnect=0;targetShapes=umlLifeline;portConstraint=eastwest;newEdgeStyle={&quot;edgeStyle&quot;:&quot;elbowEdgeStyle&quot;,&quot;elbow&quot;:&quot;vertical&quot;,&quot;curved&quot;:0,&quot;rounded&quot;:0};" vertex="1" parent="1">
          <mxGeometry x="462" y="330" width="10" height="68" as="geometry" />
        </mxCell>
        <mxCell id="9qP5agyVCZDFQKbvkqB9-12" value="Submit Answer" style="html=1;verticalAlign=bottom;startArrow=oval;endArrow=block;startSize=8;edgeStyle=elbowEdgeStyle;elbow=vertical;curved=0;rounded=0;" edge="1" target="9qP5agyVCZDFQKbvkqB9-11" parent="1">
          <mxGeometry relative="1" as="geometry">
            <mxPoint x="289" y="331" as="sourcePoint" />
          </mxGeometry>
        </mxCell>
        <mxCell id="9qP5agyVCZDFQKbvkqB9-13" value="" style="html=1;points=[];perimeter=orthogonalPerimeter;outlineConnect=0;targetShapes=umlLifeline;portConstraint=eastwest;newEdgeStyle={&quot;edgeStyle&quot;:&quot;elbowEdgeStyle&quot;,&quot;elbow&quot;:&quot;vertical&quot;,&quot;curved&quot;:0,&quot;rounded&quot;:0};" vertex="1" parent="1">
          <mxGeometry x="627" y="237" width="10" height="77" as="geometry" />
        </mxCell>
        <mxCell id="9qP5agyVCZDFQKbvkqB9-14" value="dispatch" style="html=1;verticalAlign=bottom;endArrow=block;edgeStyle=elbowEdgeStyle;elbow=vertical;curved=0;rounded=0;" edge="1" target="9qP5agyVCZDFQKbvkqB9-13" parent="1">
          <mxGeometry relative="1" as="geometry">
            <mxPoint x="482" y="238" as="sourcePoint" />
          </mxGeometry>
        </mxCell>
        <mxCell id="9qP5agyVCZDFQKbvkqB9-15" value="Displays first question" style="html=1;verticalAlign=bottom;endArrow=open;dashed=1;endSize=8;edgeStyle=elbowEdgeStyle;elbow=vertical;curved=0;rounded=0;" edge="1" source="9qP5agyVCZDFQKbvkqB9-13" parent="1">
          <mxGeometry relative="1" as="geometry">
            <mxPoint x="482" y="313" as="targetPoint" />
          </mxGeometry>
        </mxCell>
        <mxCell id="9qP5agyVCZDFQKbvkqB9-16" value="" style="html=1;points=[];perimeter=orthogonalPerimeter;outlineConnect=0;targetShapes=umlLifeline;portConstraint=eastwest;newEdgeStyle={&quot;edgeStyle&quot;:&quot;elbowEdgeStyle&quot;,&quot;elbow&quot;:&quot;vertical&quot;,&quot;curved&quot;:0,&quot;rounded&quot;:0};" vertex="1" parent="1">
          <mxGeometry x="625" y="330" width="10" height="71" as="geometry" />
        </mxCell>
        <mxCell id="9qP5agyVCZDFQKbvkqB9-18" value="Correct answer" style="html=1;verticalAlign=bottom;endArrow=open;dashed=1;endSize=8;edgeStyle=elbowEdgeStyle;elbow=vertical;curved=0;rounded=0;" edge="1" source="9qP5agyVCZDFQKbvkqB9-16" parent="1">
          <mxGeometry relative="1" as="geometry">
            <mxPoint x="477" y="400" as="targetPoint" />
          </mxGeometry>
        </mxCell>
        <mxCell id="9qP5agyVCZDFQKbvkqB9-19" value="" style="html=1;points=[];perimeter=orthogonalPerimeter;outlineConnect=0;targetShapes=umlLifeline;portConstraint=eastwest;newEdgeStyle={&quot;edgeStyle&quot;:&quot;elbowEdgeStyle&quot;,&quot;elbow&quot;:&quot;vertical&quot;,&quot;curved&quot;:0,&quot;rounded&quot;:0};" vertex="1" parent="1">
          <mxGeometry x="462" y="414" width="10" height="90" as="geometry" />
        </mxCell>
        <mxCell id="9qP5agyVCZDFQKbvkqB9-20" value="Displays Next Question" style="html=1;verticalAlign=bottom;startArrow=oval;endArrow=block;startSize=8;edgeStyle=elbowEdgeStyle;elbow=vertical;curved=0;rounded=0;" edge="1" target="9qP5agyVCZDFQKbvkqB9-19" parent="1">
          <mxGeometry relative="1" as="geometry">
            <mxPoint x="290" y="416" as="sourcePoint" />
          </mxGeometry>
        </mxCell>
        <mxCell id="9qP5agyVCZDFQKbvkqB9-22" value="" style="html=1;points=[];perimeter=orthogonalPerimeter;outlineConnect=0;targetShapes=umlLifeline;portConstraint=eastwest;newEdgeStyle={&quot;edgeStyle&quot;:&quot;elbowEdgeStyle&quot;,&quot;elbow&quot;:&quot;vertical&quot;,&quot;curved&quot;:0,&quot;rounded&quot;:0};" vertex="1" parent="1">
          <mxGeometry x="625" y="414" width="10" height="77" as="geometry" />
        </mxCell>
        <mxCell id="9qP5agyVCZDFQKbvkqB9-24" value="Wrong answer" style="html=1;verticalAlign=bottom;endArrow=open;dashed=1;endSize=8;edgeStyle=elbowEdgeStyle;elbow=vertical;curved=0;rounded=0;" edge="1" source="9qP5agyVCZDFQKbvkqB9-22" parent="1">
          <mxGeometry relative="1" as="geometry">
            <mxPoint x="480" y="492" as="targetPoint" />
            <Array as="points">
              <mxPoint x="553" y="492" />
            </Array>
          </mxGeometry>
        </mxCell>
        <mxCell id="9qP5agyVCZDFQKbvkqB9-25" value="" style="html=1;points=[];perimeter=orthogonalPerimeter;outlineConnect=0;targetShapes=umlLifeline;portConstraint=eastwest;newEdgeStyle={&quot;edgeStyle&quot;:&quot;elbowEdgeStyle&quot;,&quot;elbow&quot;:&quot;vertical&quot;,&quot;curved&quot;:0,&quot;rounded&quot;:0};" vertex="1" parent="1">
          <mxGeometry x="462" y="532" width="10" height="40" as="geometry" />
        </mxCell>
        <mxCell id="9qP5agyVCZDFQKbvkqB9-26" value="Answer not correct" style="html=1;align=left;spacingLeft=2;endArrow=block;rounded=0;edgeStyle=orthogonalEdgeStyle;curved=0;rounded=0;" edge="1" target="9qP5agyVCZDFQKbvkqB9-25" parent="1">
          <mxGeometry relative="1" as="geometry">
            <mxPoint x="472" y="488" as="sourcePoint" />
            <Array as="points">
              <mxPoint x="472" y="504" />
              <mxPoint x="502" y="504" />
              <mxPoint x="502" y="552" />
            </Array>
          </mxGeometry>
        </mxCell>
        <mxCell id="9qP5agyVCZDFQKbvkqB9-27" value="Verifies answer" style="html=1;verticalAlign=bottom;endArrow=block;edgeStyle=elbowEdgeStyle;elbow=vertical;curved=0;rounded=0;" edge="1" parent="1">
          <mxGeometry width="80" relative="1" as="geometry">
            <mxPoint x="486" y="335" as="sourcePoint" />
            <mxPoint x="617" y="335" as="targetPoint" />
          </mxGeometry>
        </mxCell>
        <mxCell id="9qP5agyVCZDFQKbvkqB9-28" value="Displays Score" style="html=1;verticalAlign=bottom;endArrow=block;edgeStyle=elbowEdgeStyle;elbow=vertical;curved=0;rounded=0;" edge="1" parent="1">
          <mxGeometry y="-5" width="80" relative="1" as="geometry">
            <mxPoint x="453" y="570" as="sourcePoint" />
            <mxPoint x="287" y="570" as="targetPoint" />
            <mxPoint as="offset" />
          </mxGeometry>
        </mxCell>
        <mxCell id="9qP5agyVCZDFQKbvkqB9-29" value="Interaction Model" style="text;align=center;fontStyle=1;verticalAlign=middle;spacingLeft=3;spacingRight=3;strokeColor=none;rotatable=0;points=[[0,0.5],[1,0.5]];portConstraint=eastwest;html=1;" vertex="1" parent="1">
          <mxGeometry x="417" y="69" width="80" height="26" as="geometry" />
        </mxCell>
        <mxCell id="9qP5agyVCZDFQKbvkqB9-30" value="UI" style="shape=umlLifeline;perimeter=lifelinePerimeter;whiteSpace=wrap;html=1;container=1;dropTarget=0;collapsible=0;recursiveResize=0;outlineConnect=0;portConstraint=eastwest;newEdgeStyle={&quot;edgeStyle&quot;:&quot;elbowEdgeStyle&quot;,&quot;elbow&quot;:&quot;vertical&quot;,&quot;curved&quot;:0,&quot;rounded&quot;:0};size=35;" vertex="1" parent="1">
          <mxGeometry x="451.5" y="183" width="31" height="394" as="geometry" />
        </mxCell>
      </root>
    </mxGraphModel>
  </diagram>
</mxfile>
